# xmcd
#
# Track frame offsets: 
#        150
#        3304
#        22253
#        52345
#        86933
#        144266
#        157755
#        170582
#        194415
#        209764
#        226339
#        257936
#
# Disc length: 3932 seconds
#
# Revision: 2
# Processed by: cddbd v1.5.2PL0 Copyright (c) Steve Scherf et al.
# Submitted via: ExactAudioCopyFreeDBPlugin 1.0
#
DISCID=ad0f5a0c
DTITLE=RawRadarWar vs. Deer Creek - Split
DYEAR=2007
DGENRE=Doom Metal
TTITLE0=RawRadarWar - In The Real Of The Sense
TTITLE1=RawRadarWar - Not Exactly Invincible
TTITLE2=RawRadarWar - Too Giant Style Of Hentai Demon
TTITLE3=RawRadarWar - The End The Whole Time
TTITLE4=RawRadarWar - Rejoice, A Swine Of Fire
TTITLE5=Deer Creek - In Vain, I Struggled
TTITLE6=Deer Creek - Profess To Be...
TTITLE7=Deer Creek - She Was Beneath
TTITLE8=Deer Creek - Born To Sin
TTITLE9=Deer Creek - Be Reasonable, Poor Man, You Were Made To Be Slav
TTITLE9=e
TTITLE10=Deer Creek - Ceaseless ~ All Their Lies
TTITLE11=Deer Creek - Riding The Cosmic Disaster
EXTD=
EXTT0=
EXTT1=
EXTT2=
EXTT3=
EXTT4=
EXTT5=
EXTT6=
EXTT7=
EXTT8=
EXTT9=
EXTT10=
EXTT11=
PLAYORDER=
